# xmcd
#
# Track frame offsets:
#	150
#	11790
#	25085
#	38713
#	51032
#	64471
#	74767
#	85045
#	98556
#	110940
#	122343
#	133951
#	147337
#	159593
#	170711
#	183469
#
# Disc length: 2637 seconds
#
# Revision: 1
# Processed by: cddbd v1.5.2PL0 Copyright (c) Steve Scherf et al.
# Submitted via: audiograbber 1.83.01
#
DISCID=e90a4b10
DTITLE=New York Blues - New York Blues
DYEAR=1900
DGENRE=
TTITLE0=Willbert Harrison - Goodbye Kansas City
TTITLE1=Buster Brown - Fannie Mae
TTITLE2=Tarheel Slim - Number Nine Train
TTITLE3=Titus Tee Turner - I Love You Baby
TTITLE4=Wild Jimmy Spruill - Hard Grind
TTITLE5=Chick Bradford - You're Going To Miss Me (When I'm Gone)
TTITLE6=Riff Ruffin - All My Life
TTITLE7=Hal Page and the Whalers - After Hours Blues
TTITLE8=Sammy Taylor - Ain't That A Shame
TTITLE9=Billy Lewis - Heart Trouble
TTITLE10=Titus Tee Turner - Bow-Wow (Life Ain't Nothing But Dog Eat Dog)
TTITLE11=Tarheel Slim - Wildcat Tamer
TTITLE12=Wilbert Harrison - Why Did You Leave
TTITLE13=Buster Brown - Sugar Babe
TTITLE14=Johnny Ace - Why
TTITLE15=Sonny Terry and Brownie McGhee - Walk On
EXTD=
EXTT0=
EXTT1=
EXTT2=
EXTT3=
EXTT4=
EXTT5=
EXTT6=
EXTT7=
EXTT8=
EXTT9=
EXTT10=
EXTT11=
EXTT12=
EXTT13=
EXTT14=
EXTT15=
PLAYORDER=
